<?xml version="1.0" ?><svg enable-background="new 0 0 32 32" id="Glyph" version="1.1" viewBox="0 0 32 32" xml:space="preserve" xmlns="http://www.w3.org/2000/svg" xmlns:xlink="http://www.w3.org/1999/xlink"><path d="M24.972,12.288C24.608,7.657,20.723,4,16,4c-4.04,0-7.508,2.624-8.627,6.451C4.181,11.559,2,14.583,2,18  c0,4.411,3.589,8,8,8h13c3.86,0,7-3.14,7-7C30,15.851,27.93,13.148,24.972,12.288z M20.707,17.707l-4,4  C16.512,21.902,16.256,22,16,22s-0.512-0.098-0.707-0.293l-4-4c-0.286-0.286-0.372-0.716-0.217-1.09C11.231,16.244,11.596,16,12,16  h2v-4c0-1.104,0.896-2,2-2s2,0.896,2,2v4h2c0.404,0,0.769,0.244,0.924,0.617C21.079,16.991,20.993,17.421,20.707,17.707z" id="XMLID_267_"/></svg>